<svg xmlns="http://www.w3.org/2000/svg" width="57" height="57" viewBox="0 0 57 57"><path d="M53.853,0H3.143A3.146,3.146,0,0,0,0,3.146v50.71A3.146,3.146,0,0,0,3.146,57H53.853A3.146,3.146,0,0,0,57,53.855h0V3.144A3.146,3.146,0,0,0,53.853,0Zm0,0" transform="translate(0 0)" fill="#4267b2"/><path d="M223.158,125.267V103.429h7.362l1.1-8.548h-8.465V89.437c0-2.469.685-4.152,4.226-4.152h4.487V77.66a60.322,60.322,0,0,0-6.576-.336c-6.507,0-10.961,3.971-10.961,11.266v6.291H207v8.548h7.335v21.839Zm0,0" transform="translate(-183.787 -68.267)" fill="#fff"/></svg>