<svg xmlns="http://www.w3.org/2000/svg" width="57" height="57" viewBox="0 0 57 57"><g transform="translate(0.225)"><rect width="57" height="57" transform="translate(-0.225)" fill="#50abf1"/><path d="M60.36,126a24.312,24.312,0,0,0,37.3-20.546q0-.5-.02-1c.486-.382,3.489-2.789,4.225-4.337a19.718,19.718,0,0,1-4.826,1.252h-.015l.013-.008c.22-.147,3.295-2.24,3.711-4.734a29.614,29.614,0,0,1-4.141,1.726c-.4.133-.818.263-1.25.384A8.53,8.53,0,0,0,80.827,106.5c-.658-.027-10.686-.589-17.508-8.85,0,0-4.077,5.566,2.43,11.289a8.764,8.764,0,0,1-3.684-1.1,8.106,8.106,0,0,0,6.742,8.467,7.8,7.8,0,0,1-3.763.158,8.409,8.409,0,0,0,7.84,5.957A16.383,16.383,0,0,1,60.358,126Z" transform="translate(-52.754 -84.14)" fill="#fff"/></g></svg>