<svg xmlns="http://www.w3.org/2000/svg" width="1920" height="112.905" viewBox="0 0 1920 112.905"><g transform="translate(356.2 2.3)"><path d="M1224.733,81.8S1004.069,130,774.646,101.7c-397.613-49.2-582.678,2.7-754.162,6.6C-229.752,114-339.2,85.6-339.2,85.6V9.4H1224.733Z" transform="translate(-3.339)" fill="#f8484b" opacity="0.75"/><path d="M1650.833,80.8s-220.664,48.2-450.087,19.9c-397.613-49.2-582.678,2.7-754.162,6.6C196.348,113,86.9,84.6,86.9,84.6V8.5H1650.833Z" transform="translate(-87.033)" fill="#fa6d70" opacity="0.3"/><path d="M1266.549,5.6s-248.307,96.5-561.3,96.5C366.456,102.1,201.4,7,201.4,7V1.8H1271.772Z" transform="translate(-109.522)" fill="#fff" opacity="0"/><path d="M1558.657,55.1s-288,63.9-618.759,39c-420.836-31.8-572.633-8.6-754.162,6.6C-87.241,123.7-349.37,49-349.37,49L-356.2-2.3,1556.97,1.8Z" fill="#fff"/></g></svg>