<svg xmlns="http://www.w3.org/2000/svg" xmlns:xlink="http://www.w3.org/1999/xlink" width="1258.481" height="770.834" viewBox="0 0 1258.481 770.834"><defs><linearGradient id="a" x1="2.099" y1="1.41" x2="2.099" y2="2.41" gradientUnits="objectBoundingBox"><stop offset="0" stop-color="gray" stop-opacity="0.251"/><stop offset="0.54" stop-color="gray" stop-opacity="0.122"/><stop offset="1" stop-color="gray" stop-opacity="0.102"/></linearGradient><linearGradient id="b" x1="12.233" y1="5.44" x2="12.233" y2="6.455" xlink:href="#a"/><linearGradient id="c" x1="12.311" y1="8.835" x2="12.311" y2="9.849" xlink:href="#a"/><linearGradient id="d" x1="9.816" y1="8.097" x2="9.816" y2="9.105" xlink:href="#a"/><linearGradient id="e" x1="9.221" y1="-4.058" x2="9.221" y2="-3.07" xlink:href="#a"/><linearGradient id="f" x1="11.938" y1="-7.084" x2="11.938" y2="-6.076" xlink:href="#a"/><linearGradient id="g" x1="9.524" y1="4.618" x2="9.524" y2="5.627" xlink:href="#a"/><linearGradient id="h" x1="8.673" y1="-5.781" x2="8.673" y2="-4.777" xlink:href="#a"/><linearGradient id="i" x1="8.025" y1="-13.149" x2="8.025" y2="-12.145" xlink:href="#a"/><linearGradient id="j" x1="9.945" y1="-15.466" x2="9.945" y2="-14.484" xlink:href="#a"/><linearGradient id="k" x1="10.751" y1="-28.378" x2="10.751" y2="-27.39" xlink:href="#a"/><linearGradient id="l" x1="9.636" y1="-10.591" x2="9.636" y2="-9.61" xlink:href="#a"/><linearGradient id="m" x1="8.598" y1="6.422" x2="8.598" y2="7.41" xlink:href="#a"/><linearGradient id="n" x1="9.399" y1="-6.243" x2="9.399" y2="-5.255" xlink:href="#a"/><linearGradient id="o" x1="8.161" y1="2.245" x2="8.161" y2="3.258" xlink:href="#a"/><linearGradient id="p" x1="2.219" y1="-9.264" x2="2.219" y2="-8.229" xlink:href="#a"/><linearGradient id="q" x1="1.291" y1="-7.266" x2="1.291" y2="-6.242" xlink:href="#a"/><linearGradient id="r" x1="3.686" y1="0.69" x2="3.686" y2="1.691" xlink:href="#a"/><linearGradient id="s" x1="3.68" y1="-2.376" x2="3.68" y2="-1.373" xlink:href="#a"/><linearGradient id="t" x1="8.039" y1="-3.037" x2="8.039" y2="-2.024" xlink:href="#a"/><linearGradient id="u" x1="8.056" y1="-2.33" x2="8.056" y2="-1.317" xlink:href="#a"/></defs><g transform="translate(0 -499.978)"><ellipse cx="628.731" cy="68.934" rx="628.731" ry="68.934" transform="translate(1.019 1132.944)" fill="#e3e6f0" opacity="0.5"/><rect width="85.346" height="12.904" transform="translate(19.922 754.319)" fill="#4d8af0"/><path d="M18.721,235.9,9.1,672.932h6L28.456,236.126Z" transform="translate(1.2 531.097)" fill="#eee"/><path d="M94.034,235.9l9.734,437.032H97.657L84.3,236.126Z" transform="translate(11.12 531.097)" fill="#eee"/><path d="M34.8,236.126,24.5,672.932h7.244L41.252,235.9Z" transform="translate(3.232 531.097)" fill="#e0e0e0"/><path d="M79.252,236.126l10.3,436.806H82.308L72.8,235.9Z" transform="translate(9.603 531.097)" fill="#e0e0e0"/><rect width="54.898" height="6.678" transform="translate(36.221 1150.942)" fill="#e0e0e0"/><rect width="59.086" height="6.678" transform="translate(34.41 1114.155)" fill="#e0e0e0"/><rect width="57.275" height="6.678" transform="translate(36.221 1078.047)" fill="#e0e0e0"/><rect width="54.898" height="6.678" transform="translate(36.221 1041.259)" fill="#e0e0e0"/><rect width="54.898" height="5.999" transform="translate(36.221 1003.227)" fill="#e0e0e0"/><rect width="53.087" height="7.244" transform="translate(38.032 967.119)" fill="#e0e0e0"/><rect width="51.276" height="4.867" transform="translate(38.032 930.898)" fill="#e0e0e0"/><rect width="45.277" height="7.81" transform="translate(39.843 892.299)" fill="#e0e0e0"/><rect width="46.974" height="6.678" transform="translate(39.843 856.191)" fill="#e0e0e0"/><rect width="46.974" height="7.244" transform="translate(39.843 818.838)" fill="#e0e0e0"/><rect width="42.786" height="7.244" transform="translate(42.22 782.051)" fill="#e0e0e0"/><rect width="125.416" height="26.487" transform="translate(0 729.53)" fill="#4d8af0"/><g transform="translate(21.664 542.991)" opacity="0.5"><path d="M116.213,38,72.634,66.411A8.33,8.33,0,0,0,69.8,62a6.964,6.964,0,0,0,.226-4.3,3.389,3.389,0,0,0-.453-1.132,1.9,1.9,0,0,0-1.7-.453l-6.9.453a4.081,4.081,0,0,0-2.264.679c-1.019.792-1.245,2.49-2.264,3.283a13.315,13.315,0,0,1-2.264.792c-1.585.906-1.924,3.4-2.037,5.433-.113,2.83-.113,6.112,1.7,7.923,1.358,1.245,3.169,1.132,4.867,1.019l1.7-.113,1.358.679v2.377h-.34s-19.582-5.66-40.975,53.426h-.34s-3.169,10.753,1.924,8.829c4.414-1.7,4.528-7.131,4.414-8.489h.34s8.829-25.921,22.751-29.09c0,0,10.074,12.677-6.339,37.919h12.9a20.765,20.765,0,0,0,1.7,8.263c3.848,7.584-7.584,79.687-7.584,79.687h9.508L64.485,205.3l.566,23.883h6.9l7.018-45.956-.906-55.351V113.5l1.245,1.7V93.011H97.65l3.169-24.676h-.34a27.133,27.133,0,0,0-.226-5.207l23.657-4.98C127.532,42.414,116.213,38,116.213,38ZM95.5,68.788,89.953,82.937s-15.168-6.9-20.827-4.414h-.34V75.466A8.3,8.3,0,0,0,72.861,68.9l22.751-4.754a21.048,21.048,0,0,0-.113,4.641Z" transform="translate(-19.139 -38)" fill="url(#a)"/></g><path d="M90.235,69.387s.679-10.414-2.49-8.15-1.811,8.829-1.811,8.829Z" transform="translate(11.298 508.014)" fill="#fda57d"/><path d="M22.21,121.1s-3.056,10.187,1.811,8.489S28.21,121.1,28.21,121.1h-6Z" transform="translate(2.805 515.953)" fill="#fda57d"/><rect width="6.678" height="5.999" transform="translate(64.859 582.155)" fill="#fda57d"/><rect width="5.433" height="27.166" transform="translate(59.425 615.32)" fill="#4d8af0"/><rect width="5.433" height="27.166" transform="translate(59.425 615.32)" opacity="0.1"/><path d="M60.252,76.1h6.226a6.57,6.57,0,0,1,6.565,6.565v40.523H53.8V82.552A6.523,6.523,0,0,1,60.252,76.1Z" transform="translate(7.097 510.017)" fill="#fff"/><circle cx="7.81" cy="7.81" r="7.81" transform="translate(59.765 568.572)" fill="#fda57d"/><path d="M61.564,76.116S42.888,70.683,22.4,127.392h6s8.489-24.676,21.733-27.732c0,0,9.621,12-6,36.221H56.81v-8.037A140.821,140.821,0,0,1,61.338,91.51,30.857,30.857,0,0,0,61.564,76.116Z" transform="translate(2.955 510)" fill="#4d8af0"/><path d="M63.4,77.221v1.811s4.188,18.677,7.81,30.788l1.811,2.49V91.031H90.453L93.509,67.6H88.642L83.1,81.409C83.208,81.409,68.833,74.731,63.4,77.221Z" transform="translate(8.363 508.895)" fill="#4d8af0"/><path d="M54.644,117.613s-3.622,13.243,0,20.488S47.4,214.052,47.4,214.052h9.055l12.9-64.859L71.51,117.5Z" transform="translate(6.253 515.478)" fill="#333"/><path d="M72.515,117.6l.906,52.747-6.565,43.692H60.177L57.8,117.6Z" transform="translate(7.625 515.491)" fill="#333"/><path d="M59.745,65.92a3,3,0,0,1,.566-.679,1.636,1.636,0,0,1,.792-.226c1.585-.113,3.509-.113,4.528-1.7a6.28,6.28,0,0,0,.453-4.528,2.011,2.011,0,0,0-.453-1.132,1.681,1.681,0,0,0-1.585-.453l-6.565.453a3.727,3.727,0,0,0-2.151.679c-.906.792-1.245,2.377-2.151,3.056a16.5,16.5,0,0,1-2.151.792c-1.471.792-1.811,3.169-1.924,5.207-.113,2.717-.113,5.886,1.585,7.471,1.245,1.245,3.056,1.132,4.641,1.019l3.056-.226a2.664,2.664,0,0,0,.906-.226,2.577,2.577,0,0,0,.453-1.811c-.113-1.471-.226-3.283-1.245-4.188-.226-.226-.453-.34-.679-.566C56.689,67.052,59.179,66.713,59.745,65.92Z" transform="translate(6.472 507.519)" fill="#333"/><path d="M107.941,42s10.866,4.188,7.244,19.243L66.4,71.543V69.166Z" transform="translate(8.759 505.518)" fill="#f55f44"/><rect width="85.007" height="2.377" transform="translate(20.148 755.791)" opacity="0.1"/><rect width="6.678" height="1.245" transform="translate(34.071 925.804)" opacity="0.1"/><rect width="6.678" height="1.245" transform="translate(85.912 925.804)" opacity="0.1"/><rect width="85.007" height="10.187" transform="translate(19.922 915.843)" fill="#eee"/><path d="M153.751,38.7l.906-.34h-.226l.113-.113h-.113L131,35.3l.566,7.7.679,6.9,1.471-.792,1.358,3.056Z" transform="translate(17.281 504.635)" fill="url(#b)"/><path d="M132.2,42.5l.679,6.226L153.706,38.2l-18.111.34Z" transform="translate(17.439 505.017)" fill="#21c87a"/><path d="M132.2,42.5l.679,6.226L153.706,38.2l-18.111.34Z" transform="translate(17.439 505.017)" opacity="0.2"/><path d="M131.8,35.7l21.959,2.83-21.506,4.3Z" transform="translate(17.386 504.687)" fill="#21c87a"/><path d="M135.33,50.891,153.554,38.1,132.5,44.439Z" transform="translate(17.479 505.004)" fill="#21c87a"/><path d="M253.851,10.209l.906-.453h-.226l.113-.113-.226.113L231.1,6.7l.453,7.7.792,6.9,1.472-.792,1.245,3.056Z" transform="translate(92.813 500.862)" fill="url(#c)"/><path d="M232.2,13.9l.679,6.226L253.82,9.6l-18.111.34Z" transform="translate(93.128 501.244)" fill="#21c87a"/><path d="M232.2,13.9l.679,6.226L253.82,9.6l-18.111.34Z" transform="translate(93.128 501.244)" opacity="0.2"/><path d="M231.8,7.1l22.072,2.83-21.62,4.3Z" transform="translate(92.995 500.915)" fill="#21c87a"/><path d="M235.43,22.291,253.654,9.5,232.6,15.839Z" transform="translate(93.253 501.231)" fill="#21c87a"/><path d="M430.6.906l1.245-.792h-.34L431.621,0l-.226.113L395.4,1.585l2.83,11.546,2.83,10.074,2.038-1.471,2.717,4.188Z" transform="translate(160.185 499.978)" fill="url(#d)"/><path d="M398.9,12.611l2.6,9.282L430.254.5,403.088,5.82Z" transform="translate(161.041 500.044)" fill="#21c87a"/><path d="M398.9,12.611l2.6,9.282L430.254.5,403.088,5.82Z" transform="translate(161.041 500.044)" opacity="0.2"/><path d="M396.7,2.085,430.544.5,399.19,12.611Z" transform="translate(160.425 500.044)" fill="#21c87a"/><path d="M405.8,24.383,429.909.5,399.8,15.328Z" transform="translate(161.268 500.044)" fill="#21c87a"/><path d="M344.957,59.429l.906-.226h-.226l.113-.113h-.113L323.677,50.6l-1.358,7.584L321.3,64.975l1.585-.34.566,3.283Z" transform="translate(129.118 506.653)" fill="url(#e)"/><path d="M323.005,57.643l-.906,6.339,22.865-5.207L327.194,54.7Z" transform="translate(129.292 507.194)" fill="#21c87a"/><path d="M323.005,57.643l-.906,6.339,22.865-5.207L327.194,54.7Z" transform="translate(129.292 507.194)" opacity="0.2"/><path d="M324.145,51.2l20.714,8.037L322.9,58.1Z" transform="translate(129.534 506.732)" fill="#21c87a"/><path d="M324.045,66.123,344.759,58.2l-21.959.906Z" transform="translate(129.494 507.655)" fill="#21c87a"/><g transform="translate(291.536 643.165)" opacity="0.5"><path d="M230.751,130.009l.906-.453h-.34L208,126.5l.453,7.81.792,6.792,1.471-.679,1.245,3.056Z" transform="translate(-208 -126.5)" fill="url(#f)"/><path d="M209.1,133.814l.679,6.226,20.94-10.64-18.111.453Z" transform="translate(-207.855 -126.117)" fill="#21c87a"/><path d="M209.1,133.814l.679,6.226,20.94-10.64-18.111.453Z" transform="translate(-207.855 -126.117)" opacity="0.2"/><path d="M208.7,127l22.072,2.717-21.62,4.414Z" transform="translate(-207.908 -126.434)" fill="#21c87a"/><path d="M212.33,142.077,230.554,129.4,209.5,135.626Z" transform="translate(-207.802 -126.117)" fill="#21c87a"/></g><g transform="translate(591.134 542.312)" opacity="0.2"><path d="M455.9,38.306l1.245-.792h-.34l.113-.113-.226.113L420.7,38.985l2.83,11.546L426.36,60.6l2.038-1.471,2.717,4.188Z" transform="translate(-420.7 -37.4)" fill="url(#g)"/><path d="M424.2,50.011l2.6,9.282L455.554,37.9l-27.166,5.32Z" transform="translate(-420.238 -37.334)" fill="#21c87a"/><path d="M424.2,50.011l2.6,9.282L455.554,37.9l-27.166,5.32Z" transform="translate(-420.238 -37.334)" opacity="0.2"/><path d="M422,39.485,455.844,37.9,424.49,50.011Z" transform="translate(-420.529 -37.334)" fill="#21c87a"/><path d="M431.1,61.783,455.209,37.9,425.1,52.728Z" transform="translate(-420.12 -37.334)" fill="#21c87a"/></g><g transform="translate(710.132 667.954)" opacity="0.3"><path d="M540.6,149.419l1.132-.906h-.226V148.4l-.113.113L505.4,149.985l2.83,11.546,2.83,10.187,1.924-1.472,2.83,4.188Z" transform="translate(-505.4 -148.4)" fill="url(#h)"/><path d="M508.9,161l2.6,9.282L540.254,149l-27.279,5.32Z" transform="translate(-504.938 -148.321)" fill="#21c87a"/><path d="M508.9,161l2.6,9.282L540.254,149l-27.279,5.32Z" transform="translate(-504.938 -148.321)" opacity="0.2"/><path d="M506.6,150.471,540.557,149,509.2,161Z" transform="translate(-505.242 -148.321)" fill="#21c87a"/><path d="M515.8,172.783l24.11-23.883L509.8,163.841Z" transform="translate(-504.82 -148.334)" fill="#21c87a"/></g><g transform="translate(1105.899 730.209)" opacity="0.3"><path d="M802.3,204.419l1.245-.906h-.34l.113-.113-.226.113L767.1,204.985l2.83,11.546,2.83,10.187,1.924-1.585,2.83,4.3Z" transform="translate(-767.1 -203.4)" fill="url(#i)"/><path d="M770.6,216l2.6,9.282L801.954,204l-27.279,5.207Z" transform="translate(-766.638 -203.321)" fill="#21c87a"/><path d="M770.6,216l2.6,9.282L801.954,204l-27.279,5.207Z" transform="translate(-766.638 -203.321)" opacity="0.2"/><path d="M768.3,205.471,802.257,204,770.9,216Z" transform="translate(-766.942 -203.321)" fill="#21c87a"/><path d="M777.5,227.783l24.11-23.883L771.5,218.841Z" transform="translate(-766.519 -203.334)" fill="#21c87a"/></g><g transform="translate(455.044 657.993)" opacity="0.5"><path d="M348.257,148.542l.906-.226-.226-.113h0l-21.959-8.6-1.358,7.7-1.019,6.792,1.585-.34.566,3.283Z" transform="translate(-324.6 -139.6)" fill="url(#j)"/><path d="M326.306,146.743l-.906,6.226,22.865-5.207L330.494,143.8Z" transform="translate(-324.494 -139.046)" fill="#21c87a"/><path d="M326.306,146.743l-.906,6.226,22.865-5.207L330.494,143.8Z" transform="translate(-324.494 -139.046)" opacity="0.2"/><path d="M327.445,140.3l20.714,7.923L326.2,147.2Z" transform="translate(-324.389 -139.508)" fill="#21c87a"/><path d="M327.345,155.237l20.714-8.037L326.1,148.219Z" transform="translate(-324.402 -138.597)" fill="#21c87a"/></g><g transform="translate(959.153 806.161)" opacity="0.5"><path d="M707.744,279.329l1.019-.226h-.34l-21.846-8.6-1.471,7.584-.906,6.9,1.585-.453.566,3.283Z" transform="translate(-684.2 -270.5)" fill="url(#k)"/><path d="M685.792,277.643,685,283.868l22.865-5.207L690.094,274.7Z" transform="translate(-684.094 -269.946)" fill="#21c87a"/><path d="M685.792,277.643,685,283.868l22.865-5.207L690.094,274.7Z" transform="translate(-684.094 -269.946)" opacity="0.2"/><path d="M686.945,271.1l20.827,8.037L685.7,278.118Z" transform="translate(-684.002 -270.421)" fill="#21c87a"/><path d="M686.945,286.023l20.6-7.923L685.7,279.119Z" transform="translate(-684.002 -269.497)" fill="#21c87a"/></g><g transform="translate(928.312 649.277)" opacity="0.5"><path d="M685.744,140.842l1.019-.226-.226-.113h0l-21.959-8.6-1.471,7.7-.906,6.791,1.585-.34.566,3.283Z" transform="translate(-662.2 -131.9)" fill="url(#l)"/><path d="M663.906,139.043,663,145.268l22.865-5.207L668.094,136.1Z" transform="translate(-662.094 -131.346)" fill="#21c87a"/><path d="M663.906,139.043,663,145.268l22.865-5.207L668.094,136.1Z" transform="translate(-662.094 -131.346)" opacity="0.2"/><path d="M665.045,132.6l20.714,7.923L663.8,139.5Z" transform="translate(-661.989 -131.808)" fill="#21c87a"/><path d="M664.945,147.537l20.714-8.037L663.7,140.519Z" transform="translate(-662.002 -130.897)" fill="#21c87a"/></g><g transform="translate(1193.848 518.655)" opacity="0.2"><path d="M868.344,25.329l.906-.226h-.113v-.113h-.113L847.064,16.5l-1.358,7.584-.906,6.9,1.585-.453.566,3.283Z" transform="translate(-844.8 -16.5)" fill="url(#m)"/><path d="M846.406,23.656l-.906,6.226,22.865-5.207L850.707,20.6Z" transform="translate(-844.708 -15.959)" fill="#21c87a"/><path d="M846.406,23.656l-.906,6.226,22.865-5.207L850.707,20.6Z" transform="translate(-844.708 -15.959)" opacity="0.2"/><path d="M847.545,17.1l20.714,8.037L846.3,24.118Z" transform="translate(-844.602 -16.421)" fill="#21c87a"/><path d="M847.445,32.023,868.159,24.1,846.2,25.119Z" transform="translate(-844.615 -15.497)" fill="#21c87a"/></g><g transform="translate(237.75 560.988)" opacity="0.2"><path d="M193.144,62.729l.906-.226h-.113v-.113h-.113L171.864,53.9l-1.358,7.584-.906,6.791,1.585-.34.566,3.283Z" transform="translate(-169.6 -53.9)" fill="url(#n)"/><path d="M171.192,61.056l-.792,6.226,22.751-5.32L175.494,58Z" transform="translate(-169.494 -53.359)" fill="#21c87a"/><path d="M171.192,61.056l-.792,6.226,22.751-5.32L175.494,58Z" transform="translate(-169.494 -53.359)" opacity="0.2"/><path d="M172.345,54.5l20.714,7.923L171.1,61.518Z" transform="translate(-169.402 -53.821)" fill="#21c87a"/><path d="M172.245,69.423,192.959,61.5,171,62.406Z" transform="translate(-169.415 -52.897)" fill="#21c87a"/></g><path d="M585.85,37.82l1.358-.679h-.339l.113-.113h-.226L551.1,32.5l.792,11.772L552.911,54.8l2.264-1.132,2.037,4.641Z" transform="translate(223.21 504.265)" fill="url(#o)"/><path d="M552.8,43.465l1.019,9.621L585.739,36.9l-27.732.566Z" transform="translate(223.414 504.846)" fill="#21c87a"/><path d="M552.8,43.465l1.019,9.621L585.739,36.9l-27.732.566Z" transform="translate(223.414 504.846)" opacity="0.2"/><path d="M552.2,33.2l33.618,4.188-32.939,6.565Z" transform="translate(223.275 504.358)" fill="#21c87a"/><path d="M557.714,56.269,585.559,36.8,553.3,46.421Z" transform="translate(223.513 504.832)" fill="#21c87a"/><path d="M665.154,204.776l3.283.226-.566-.453h.34l-.453-.113L603.012,153.5l-12.338,24.11L580.6,199.456l5.546.34-1.358,11.546Z" transform="translate(243.949 520.227)" fill="url(#p)"/><path d="M592.882,176.246,583.6,196.281l81.724,5.66L610.2,170.7Z" transform="translate(244.115 522.496)" fill="#21c87a"/><path d="M592.882,176.246,583.6,196.281l81.724,5.66L610.2,170.7Z" transform="translate(244.115 522.496)" opacity="0.2"/><path d="M603.006,156.1l61.236,47.767L591.8,178.172Z" transform="translate(245.886 520.57)" fill="#21c87a"/><path d="M587.2,205.876l77.423-5.66L590.03,181.2Z" transform="translate(244.854 523.881)" fill="#21c87a"/><path d="M916.3,381.117l7.018.226-1.245-.905h.566l-.905-.226L783.418,278,759.2,329.163l-19.7,46.3,11.772.453-2.264,24Z" transform="translate(335.158 536.65)" fill="url(#q)"/><path d="M763.784,326.291,745.9,368.737,916.706,375.3,799.553,313.5Z" transform="translate(336.002 541.333)" fill="#21c87a"/><path d="M763.784,326.291,745.9,368.737,916.706,375.3,799.553,313.5Z" transform="translate(336.002 541.333)" opacity="0.2"/><path d="M783.886,283.5l130.736,95.76L761.7,330.248Z" transform="translate(338.086 537.376)" fill="#21c87a"/><path d="M753.8,388.215l161.3-16.752L758.328,336.6Z" transform="translate(337.044 544.38)" fill="#21c87a"/><path d="M800.308,27.1l3.056-1.358-.792-.113.226-.113-.34.113L721.3,10.8l.453,27.166,1.358,24.11L728.2,59.7l4.075,10.866Z" transform="translate(332.757 501.403)" fill="url(#r)"/><path d="M724.1,36.03l1.245,21.959,74.819-33.165L736.777,22.9Z" transform="translate(333.126 502.999)" fill="#21c87a"/><path d="M724.1,36.03l1.245,21.959,74.819-33.165L736.777,22.9Z" transform="translate(333.126 502.999)" opacity="0.2"/><path d="M723.8,12.6l76.4,13.583L724.139,37.389Z" transform="translate(333.087 501.64)" fill="#21c87a"/><path d="M733.842,65.6l65.877-41.2L724.9,42.4Z" transform="translate(333.232 503.197)" fill="#21c87a"/><path d="M876.094,107.4l3.056-1.358-.679-.113.226-.226-.453.113L797.2,91.1l.453,27.166,1.245,24L804.1,140l4.075,10.753Z" transform="translate(342.769 511.995)" fill="url(#s)"/><path d="M800,116.217l1.245,22.072,74.819-33.278L812.678,103.2Z" transform="translate(343.139 513.592)" fill="#21c87a"/><path d="M800,116.217l1.245,22.072,74.819-33.278L812.678,103.2Z" transform="translate(343.139 513.592)" opacity="0.2"/><path d="M799.7,92.8l76.4,13.583-76.065,11.206Z" transform="translate(343.099 512.22)" fill="#21c87a"/><path d="M809.742,145.915,875.506,104.6,800.8,122.711Z" transform="translate(343.244 513.776)" fill="#21c87a"/><path d="M486.55,101.32l1.358-.679h-.453L451.8,96l.792,11.885,1.132,10.414,2.151-1.132,2.037,4.641Z" transform="translate(182.991 512.642)" fill="url(#t)"/><path d="M453.5,107.078l1.132,9.508L486.439,100.4l-27.619.679Z" transform="translate(183.282 513.222)" fill="#21c87a"/><path d="M453.5,107.078l1.132,9.508L486.439,100.4l-27.619.679Z" transform="translate(183.282 513.222)" opacity="0.2"/><path d="M452.9,96.7l33.618,4.188-32.939,6.678Z" transform="translate(183.124 512.734)" fill="#21c87a"/><path d="M458.414,119.869,486.26,100.4,454,109.908Z" transform="translate(183.399 513.222)" fill="#21c87a"/><path d="M676.863,87.02l1.245-.679h-.34L642,81.7l.792,11.885L643.924,104l2.264-1.132,2.037,4.641Z" transform="translate(260.027 510.755)" fill="url(#u)"/><path d="M643.8,92.765l1.019,9.508L676.739,86.2l-27.732.566Z" transform="translate(260.192 511.349)" fill="#21c87a"/><path d="M643.8,92.765l1.019,9.508L676.739,86.2l-27.732.566Z" transform="translate(260.192 511.349)" opacity="0.2"/><path d="M643.2,82.4l33.618,4.3-32.939,6.565Z" transform="translate(260.07 510.848)" fill="#21c87a"/><path d="M648.714,105.569,676.446,86.1,644.3,95.608Z" transform="translate(260.253 511.336)" fill="#21c87a"/></g></svg>