<svg xmlns="http://www.w3.org/2000/svg" xmlns:xlink="http://www.w3.org/1999/xlink" width="57" height="57.011" viewBox="0 0 57 57.011"><defs><linearGradient id="a" x1="-1.539" y1="-3.018" x2="-1.1" y2="-3.49" gradientUnits="objectBoundingBox"><stop offset="0" stop-color="#fd5"/><stop offset="0.5" stop-color="#ff543e"/><stop offset="1" stop-color="#c837ab"/></linearGradient></defs><path d="M3.648,3.92C-.818,8.559.1,13.487.1,28.459c0,12.433-2.169,24.9,9.184,27.831,3.545.912,34.957.912,38.5,0,4.727-1.22,8.573-5.054,9.1-11.739.073-.933.073-31.224,0-32.176C56.314,5.248,51.93,1.144,46.154.313,44.831.121,44.565.064,37.773.053,13.682.064,8.4-1.008,3.648,3.92Z" transform="translate(0.07 0.038)" fill="url(#a)"/><path d="M24.2,3.151c-8.628,0-16.821-.768-19.951,7.264-1.293,3.317-1.1,7.625-1.1,13.794,0,5.413-.173,10.5,1.1,13.791,3.122,8.036,11.382,7.266,19.946,7.266,8.262,0,16.781.86,19.948-7.266,1.3-3.35,1.1-7.594,1.1-13.791,0-8.226.454-13.537-3.536-17.524-4.04-4.039-9.5-3.533-17.522-3.533ZM22.311,6.946c18-.029,20.288-2.029,19.024,25.765-.449,9.83-7.934,8.751-17.135,8.751-16.776,0-17.258-.48-17.258-17.263,0-16.978,1.331-17.244,15.369-17.258Zm13.126,3.5a2.526,2.526,0,1,0,2.526,2.526A2.526,2.526,0,0,0,35.437,10.441ZM24.2,13.394A10.813,10.813,0,1,0,35.007,24.208,10.813,10.813,0,0,0,24.2,13.394Zm0,3.795c9.279,0,9.291,14.038,0,14.038S14.907,17.189,24.2,17.189Z" transform="translate(4.381 4.303)" fill="#fff"/></svg>